<svg xmlns="http://www.w3.org/2000/svg" width="788" height="222" viewBox="0 0 788 222" font-family="ui-monospace,SFMono-Regular,Menlo,monospace">
<rect width="788" height="222" fill="#FFFFFF" rx="6"/>
<text x="34" y="18" fill="#1A1D1B" font-size="12" font-weight="700">Commits authored, last 12 months</text>
<text x="34" y="32" fill="#6B7570" font-size="10">every repository on my machine, public and private</text>
<text x="62" y="52" fill="#6B7570" font-size="10">Sep</text><text x="118" y="52" fill="#6B7570" font-size="10">Oct</text><text x="174" y="52" fill="#6B7570" font-size="10">Nov</text><text x="244" y="52" fill="#6B7570" font-size="10">Dec</text><text x="300" y="52" fill="#6B7570" font-size="10">Jan</text><text x="370" y="52" fill="#6B7570" font-size="10">Feb</text><text x="426" y="52" fill="#6B7570" font-size="10">Mar</text><text x="482" y="52" fill="#6B7570" font-size="10">Apr</text><text x="538" y="52" fill="#6B7570" font-size="10">May</text><text x="608" y="52" fill="#6B7570" font-size="10">Jun</text><text x="664" y="52" fill="#6B7570" font-size="10">Jul</text><text x="720" y="52" fill="#6B7570" font-size="10">Aug</text>
<text x="4" y="83" fill="#6B7570" font-size="9">Mon</text><text x="4" y="111" fill="#6B7570" font-size="9">Wed</text><text x="4" y="139" fill="#6B7570" font-size="9">Fri</text>
<rect x="34" y="60" width="11" height="11" rx="2" fill="#EDF0EE"><title>2025-08-17: 0 commits</title></rect><rect x="34" y="74" width="11" height="11" rx="2" fill="#EDF0EE"><title>2025-08-18: 0 commits</title></rect><rect x="34" y="88" width="11" height="11" rx="2" fill="#EDF0EE"><title>2025-08-19: 0 commits</title></rect><rect x="34" y="102" width="11" height="11" rx="2" fill="#EDF0EE"><title>2025-08-20: 0 commits</title></rect><rect x="34" y="116" width="11" height="11" rx="2" fill="#EDF0EE"><title>2025-08-21: 0 commits</title></rect><rect x="34" y="130" width="11" height="11" rx="2" fill="#EDF0EE"><title>2025-08-22: 0 commits</title></rect><rect x="34" y="144" width="11" height="11" rx="2" fill="#EDF0EE"><title>2025-08-23: 0 commits</title></rect><rect x="48" y="60" width="11" height="11" rx="2" fill="#EDF0EE"><title>2025-08-24: 0 commits</title></rect><rect x="48" y="74" width="11" height="11" rx="2" fill="#EDF0EE"><title>2025-08-25: 0 commits</title></rect><rect x="48" y="88" width="11" height="11" rx="2" fill="#EDF0EE"><title>2025-08-26: 0 commits</title></rect><rect x="48" y="102" width="11" height="11" rx="2" fill="#A9E9C4"><title>2025-08-27: 1 commit</title></rect><rect x="48" y="116" width="11" height="11" rx="2" fill="#EDF0EE"><title>2025-08-28: 0 commits</title></rect><rect x="48" y="130" width="11" height="11" rx="2" fill="#EDF0EE"><title>2025-08-29: 0 commits</title></rect><rect x="48" y="144" width="11" height="11" rx="2" fill="#EDF0EE"><title>2025-08-30: 0 commits</title></rect><rect x="62" y="60" width="11" height="11" rx="2" fill="#EDF0EE"><title>2025-08-31: 0 commits</title></rect><rect x="62" y="74" width="11" height="11" rx="2" fill="#EDF0EE"><title>2025-09-01: 0 commits</title></rect><rect x="62" y="88" width="11" height="11" rx="2" fill="#EDF0EE"><title>2025-09-02: 0 commits</title></rect><rect x="62" y="102" width="11" height="11" rx="2" fill="#EDF0EE"><title>2025-09-03: 0 commits</title></rect><rect x="62" y="116" width="11" height="11" rx="2" fill="#2AA862"><title>2025-09-04: 9 commits</title></rect><rect x="62" y="130" width="11" height="11" rx="2" fill="#EDF0EE"><title>2025-09-05: 0 commits</title></rect><rect x="62" y="144" width="11" height="11" rx="2" fill="#177F4C"><title>2025-09-06: 37 commits</title></rect><rect x="76" y="60" width="11" height="11" rx="2" fill="#EDF0EE"><title>2025-09-07: 0 commits</title></rect><rect x="76" y="74" width="11" height="11" rx="2" fill="#5FD096"><title>2025-09-08: 4 commits</title></rect><rect x="76" y="88" width="11" height="11" rx="2" fill="#177F4C"><title>2025-09-09: 41 commits</title></rect><rect x="76" y="102" width="11" height="11" rx="2" fill="#177F4C"><title>2025-09-10: 20 commits</title></rect><rect x="76" y="116" width="11" height="11" rx="2" fill="#177F4C"><title>2025-09-11: 13 commits</title></rect><rect x="76" y="130" width="11" height="11" rx="2" fill="#177F4C"><title>2025-09-12: 33 commits</title></rect><rect x="76" y="144" width="11" height="11" rx="2" fill="#177F4C"><title>2025-09-13: 12 commits</title></rect><rect x="90" y="60" width="11" height="11" rx="2" fill="#EDF0EE"><title>2025-09-14: 0 commits</title></rect><rect x="90" y="74" width="11" height="11" rx="2" fill="#EDF0EE"><title>2025-09-15: 0 commits</title></rect><rect x="90" y="88" width="11" height="11" rx="2" fill="#2AA862"><title>2025-09-16: 8 commits</title></rect><rect x="90" y="102" width="11" height="11" rx="2" fill="#EDF0EE"><title>2025-09-17: 0 commits</title></rect><rect x="90" y="116" width="11" height="11" rx="2" fill="#5FD096"><title>2025-09-18: 5 commits</title></rect><rect x="90" y="130" width="11" height="11" rx="2" fill="#EDF0EE"><title>2025-09-19: 0 commits</title></rect><rect x="90" y="144" width="11" height="11" rx="2" fill="#EDF0EE"><title>2025-09-20: 0 commits</title></rect><rect x="104" y="60" width="11" height="11" rx="2" fill="#EDF0EE"><title>2025-09-21: 0 commits</title></rect><rect x="104" y="74" width="11" height="11" rx="2" fill="#EDF0EE"><title>2025-09-22: 0 commits</title></rect><rect x="104" y="88" width="11" height="11" rx="2" fill="#EDF0EE"><title>2025-09-23: 0 commits</title></rect><rect x="104" y="102" width="11" height="11" rx="2" fill="#EDF0EE"><title>2025-09-24: 0 commits</title></rect><rect x="104" y="116" width="11" height="11" rx="2" fill="#EDF0EE"><title>2025-09-25: 0 commits</title></rect><rect x="104" y="130" width="11" height="11" rx="2" fill="#A9E9C4"><title>2025-09-26: 1 commit</title></rect><rect x="104" y="144" width="11" height="11" rx="2" fill="#2AA862"><title>2025-09-27: 8 commits</title></rect><rect x="118" y="60" width="11" height="11" rx="2" fill="#EDF0EE"><title>2025-09-28: 0 commits</title></rect><rect x="118" y="74" width="11" height="11" rx="2" fill="#A9E9C4"><title>2025-09-29: 1 commit</title></rect><rect x="118" y="88" width="11" height="11" rx="2" fill="#A9E9C4"><title>2025-09-30: 1 commit</title></rect><rect x="118" y="102" width="11" height="11" rx="2" fill="#EDF0EE"><title>2025-10-01: 0 commits</title></rect><rect x="118" y="116" width="11" height="11" rx="2" fill="#EDF0EE"><title>2025-10-02: 0 commits</title></rect><rect x="118" y="130" width="11" height="11" rx="2" fill="#EDF0EE"><title>2025-10-03: 0 commits</title></rect><rect x="118" y="144" width="11" height="11" rx="2" fill="#EDF0EE"><title>2025-10-04: 0 commits</title></rect><rect x="132" y="60" width="11" height="11" rx="2" fill="#EDF0EE"><title>2025-10-05: 0 commits</title></rect><rect x="132" y="74" width="11" height="11" rx="2" fill="#EDF0EE"><title>2025-10-06: 0 commits</title></rect><rect x="132" y="88" width="11" height="11" rx="2" fill="#2AA862"><title>2025-10-07: 7 commits</title></rect><rect x="132" y="102" width="11" height="11" rx="2" fill="#2AA862"><title>2025-10-08: 8 commits</title></rect><rect x="132" y="116" width="11" height="11" rx="2" fill="#A9E9C4"><title>2025-10-09: 2 commits</title></rect><rect x="132" y="130" width="11" height="11" rx="2" fill="#177F4C"><title>2025-10-10: 22 commits</title></rect><rect x="132" y="144" width="11" height="11" rx="2" fill="#2AA862"><title>2025-10-11: 7 commits</title></rect><rect x="146" y="60" width="11" height="11" rx="2" fill="#177F4C"><title>2025-10-12: 48 commits</title></rect><rect x="146" y="74" width="11" height="11" rx="2" fill="#177F4C"><title>2025-10-13: 14 commits</title></rect><rect x="146" y="88" width="11" height="11" rx="2" fill="#177F4C"><title>2025-10-14: 13 commits</title></rect><rect x="146" y="102" width="11" height="11" rx="2" fill="#EDF0EE"><title>2025-10-15: 0 commits</title></rect><rect x="146" y="116" width="11" height="11" rx="2" fill="#EDF0EE"><title>2025-10-16: 0 commits</title></rect><rect x="146" y="130" width="11" height="11" rx="2" fill="#EDF0EE"><title>2025-10-17: 0 commits</title></rect><rect x="146" y="144" width="11" height="11" rx="2" fill="#EDF0EE"><title>2025-10-18: 0 commits</title></rect><rect x="160" y="60" width="11" height="11" rx="2" fill="#EDF0EE"><title>2025-10-19: 0 commits</title></rect><rect x="160" y="74" width="11" height="11" rx="2" fill="#EDF0EE"><title>2025-10-20: 0 commits</title></rect><rect x="160" y="88" width="11" height="11" rx="2" fill="#EDF0EE"><title>2025-10-21: 0 commits</title></rect><rect x="160" y="102" width="11" height="11" rx="2" fill="#EDF0EE"><title>2025-10-22: 0 commits</title></rect><rect x="160" y="116" width="11" height="11" rx="2" fill="#EDF0EE"><title>2025-10-23: 0 commits</title></rect><rect x="160" y="130" width="11" height="11" rx="2" fill="#EDF0EE"><title>2025-10-24: 0 commits</title></rect><rect x="160" y="144" width="11" height="11" rx="2" fill="#EDF0EE"><title>2025-10-25: 0 commits</title></rect><rect x="174" y="60" width="11" height="11" rx="2" fill="#EDF0EE"><title>2025-10-26: 0 commits</title></rect><rect x="174" y="74" width="11" height="11" rx="2" fill="#A9E9C4"><title>2025-10-27: 1 commit</title></rect><rect x="174" y="88" width="11" height="11" rx="2" fill="#EDF0EE"><title>2025-10-28: 0 commits</title></rect><rect x="174" y="102" width="11" height="11" rx="2" fill="#EDF0EE"><title>2025-10-29: 0 commits</title></rect><rect x="174" y="116" width="11" height="11" rx="2" fill="#EDF0EE"><title>2025-10-30: 0 commits</title></rect><rect x="174" y="130" width="11" height="11" rx="2" fill="#EDF0EE"><title>2025-10-31: 0 commits</title></rect><rect x="174" y="144" width="11" height="11" rx="2" fill="#EDF0EE"><title>2025-11-01: 0 commits</title></rect><rect x="188" y="60" width="11" height="11" rx="2" fill="#EDF0EE"><title>2025-11-02: 0 commits</title></rect><rect x="188" y="74" width="11" height="11" rx="2" fill="#EDF0EE"><title>2025-11-03: 0 commits</title></rect><rect x="188" y="88" width="11" height="11" rx="2" fill="#EDF0EE"><title>2025-11-04: 0 commits</title></rect><rect x="188" y="102" width="11" height="11" rx="2" fill="#EDF0EE"><title>2025-11-05: 0 commits</title></rect><rect x="188" y="116" width="11" height="11" rx="2" fill="#EDF0EE"><title>2025-11-06: 0 commits</title></rect><rect x="188" y="130" width="11" height="11" rx="2" fill="#EDF0EE"><title>2025-11-07: 0 commits</title></rect><rect x="188" y="144" width="11" height="11" rx="2" fill="#EDF0EE"><title>2025-11-08: 0 commits</title></rect><rect x="202" y="60" width="11" height="11" rx="2" fill="#EDF0EE"><title>2025-11-09: 0 commits</title></rect><rect x="202" y="74" width="11" height="11" rx="2" fill="#EDF0EE"><title>2025-11-10: 0 commits</title></rect><rect x="202" y="88" width="11" height="11" rx="2" fill="#EDF0EE"><title>2025-11-11: 0 commits</title></rect><rect x="202" y="102" width="11" height="11" rx="2" fill="#EDF0EE"><title>2025-11-12: 0 commits</title></rect><rect x="202" y="116" width="11" height="11" rx="2" fill="#EDF0EE"><title>2025-11-13: 0 commits</title></rect><rect x="202" y="130" width="11" height="11" rx="2" fill="#EDF0EE"><title>2025-11-14: 0 commits</title></rect><rect x="202" y="144" width="11" height="11" rx="2" fill="#EDF0EE"><title>2025-11-15: 0 commits</title></rect><rect x="216" y="60" width="11" height="11" rx="2" fill="#EDF0EE"><title>2025-11-16: 0 commits</title></rect><rect x="216" y="74" width="11" height="11" rx="2" fill="#EDF0EE"><title>2025-11-17: 0 commits</title></rect><rect x="216" y="88" width="11" height="11" rx="2" fill="#A9E9C4"><title>2025-11-18: 1 commit</title></rect><rect x="216" y="102" width="11" height="11" rx="2" fill="#EDF0EE"><title>2025-11-19: 0 commits</title></rect><rect x="216" y="116" width="11" height="11" rx="2" fill="#EDF0EE"><title>2025-11-20: 0 commits</title></rect><rect x="216" y="130" width="11" height="11" rx="2" fill="#EDF0EE"><title>2025-11-21: 0 commits</title></rect><rect x="216" y="144" width="11" height="11" rx="2" fill="#EDF0EE"><title>2025-11-22: 0 commits</title></rect><rect x="230" y="60" width="11" height="11" rx="2" fill="#EDF0EE"><title>2025-11-23: 0 commits</title></rect><rect x="230" y="74" width="11" height="11" rx="2" fill="#EDF0EE"><title>2025-11-24: 0 commits</title></rect><rect x="230" y="88" width="11" height="11" rx="2" fill="#EDF0EE"><title>2025-11-25: 0 commits</title></rect><rect x="230" y="102" width="11" height="11" rx="2" fill="#EDF0EE"><title>2025-11-26: 0 commits</title></rect><rect x="230" y="116" width="11" height="11" rx="2" fill="#EDF0EE"><title>2025-11-27: 0 commits</title></rect><rect x="230" y="130" width="11" height="11" rx="2" fill="#EDF0EE"><title>2025-11-28: 0 commits</title></rect><rect x="230" y="144" width="11" height="11" rx="2" fill="#EDF0EE"><title>2025-11-29: 0 commits</title></rect><rect x="244" y="60" width="11" height="11" rx="2" fill="#EDF0EE"><title>2025-11-30: 0 commits</title></rect><rect x="244" y="74" width="11" height="11" rx="2" fill="#EDF0EE"><title>2025-12-01: 0 commits</title></rect><rect x="244" y="88" width="11" height="11" rx="2" fill="#EDF0EE"><title>2025-12-02: 0 commits</title></rect><rect x="244" y="102" width="11" height="11" rx="2" fill="#EDF0EE"><title>2025-12-03: 0 commits</title></rect><rect x="244" y="116" width="11" height="11" rx="2" fill="#EDF0EE"><title>2025-12-04: 0 commits</title></rect><rect x="244" y="130" width="11" height="11" rx="2" fill="#EDF0EE"><title>2025-12-05: 0 commits</title></rect><rect x="244" y="144" width="11" height="11" rx="2" fill="#EDF0EE"><title>2025-12-06: 0 commits</title></rect><rect x="258" y="60" width="11" height="11" rx="2" fill="#EDF0EE"><title>2025-12-07: 0 commits</title></rect><rect x="258" y="74" width="11" height="11" rx="2" fill="#EDF0EE"><title>2025-12-08: 0 commits</title></rect><rect x="258" y="88" width="11" height="11" rx="2" fill="#EDF0EE"><title>2025-12-09: 0 commits</title></rect><rect x="258" y="102" width="11" height="11" rx="2" fill="#EDF0EE"><title>2025-12-10: 0 commits</title></rect><rect x="258" y="116" width="11" height="11" rx="2" fill="#EDF0EE"><title>2025-12-11: 0 commits</title></rect><rect x="258" y="130" width="11" height="11" rx="2" fill="#EDF0EE"><title>2025-12-12: 0 commits</title></rect><rect x="258" y="144" width="11" height="11" rx="2" fill="#EDF0EE"><title>2025-12-13: 0 commits</title></rect><rect x="272" y="60" width="11" height="11" rx="2" fill="#EDF0EE"><title>2025-12-14: 0 commits</title></rect><rect x="272" y="74" width="11" height="11" rx="2" fill="#EDF0EE"><title>2025-12-15: 0 commits</title></rect><rect x="272" y="88" width="11" height="11" rx="2" fill="#EDF0EE"><title>2025-12-16: 0 commits</title></rect><rect x="272" y="102" width="11" height="11" rx="2" fill="#EDF0EE"><title>2025-12-17: 0 commits</title></rect><rect x="272" y="116" width="11" height="11" rx="2" fill="#EDF0EE"><title>2025-12-18: 0 commits</title></rect><rect x="272" y="130" width="11" height="11" rx="2" fill="#EDF0EE"><title>2025-12-19: 0 commits</title></rect><rect x="272" y="144" width="11" height="11" rx="2" fill="#EDF0EE"><title>2025-12-20: 0 commits</title></rect><rect x="286" y="60" width="11" height="11" rx="2" fill="#EDF0EE"><title>2025-12-21: 0 commits</title></rect><rect x="286" y="74" width="11" height="11" rx="2" fill="#EDF0EE"><title>2025-12-22: 0 commits</title></rect><rect x="286" y="88" width="11" height="11" rx="2" fill="#EDF0EE"><title>2025-12-23: 0 commits</title></rect><rect x="286" y="102" width="11" height="11" rx="2" fill="#EDF0EE"><title>2025-12-24: 0 commits</title></rect><rect x="286" y="116" width="11" height="11" rx="2" fill="#EDF0EE"><title>2025-12-25: 0 commits</title></rect><rect x="286" y="130" width="11" height="11" rx="2" fill="#EDF0EE"><title>2025-12-26: 0 commits</title></rect><rect x="286" y="144" width="11" height="11" rx="2" fill="#EDF0EE"><title>2025-12-27: 0 commits</title></rect><rect x="300" y="60" width="11" height="11" rx="2" fill="#EDF0EE"><title>2025-12-28: 0 commits</title></rect><rect x="300" y="74" width="11" height="11" rx="2" fill="#EDF0EE"><title>2025-12-29: 0 commits</title></rect><rect x="300" y="88" width="11" height="11" rx="2" fill="#EDF0EE"><title>2025-12-30: 0 commits</title></rect><rect x="300" y="102" width="11" height="11" rx="2" fill="#EDF0EE"><title>2025-12-31: 0 commits</title></rect><rect x="300" y="116" width="11" height="11" rx="2" fill="#EDF0EE"><title>2026-01-01: 0 commits</title></rect><rect x="300" y="130" width="11" height="11" rx="2" fill="#EDF0EE"><title>2026-01-02: 0 commits</title></rect><rect x="300" y="144" width="11" height="11" rx="2" fill="#EDF0EE"><title>2026-01-03: 0 commits</title></rect><rect x="314" y="60" width="11" height="11" rx="2" fill="#EDF0EE"><title>2026-01-04: 0 commits</title></rect><rect x="314" y="74" width="11" height="11" rx="2" fill="#EDF0EE"><title>2026-01-05: 0 commits</title></rect><rect x="314" y="88" width="11" height="11" rx="2" fill="#EDF0EE"><title>2026-01-06: 0 commits</title></rect><rect x="314" y="102" width="11" height="11" rx="2" fill="#EDF0EE"><title>2026-01-07: 0 commits</title></rect><rect x="314" y="116" width="11" height="11" rx="2" fill="#EDF0EE"><title>2026-01-08: 0 commits</title></rect><rect x="314" y="130" width="11" height="11" rx="2" fill="#EDF0EE"><title>2026-01-09: 0 commits</title></rect><rect x="314" y="144" width="11" height="11" rx="2" fill="#EDF0EE"><title>2026-01-10: 0 commits</title></rect><rect x="328" y="60" width="11" height="11" rx="2" fill="#EDF0EE"><title>2026-01-11: 0 commits</title></rect><rect x="328" y="74" width="11" height="11" rx="2" fill="#EDF0EE"><title>2026-01-12: 0 commits</title></rect><rect x="328" y="88" width="11" height="11" rx="2" fill="#EDF0EE"><title>2026-01-13: 0 commits</title></rect><rect x="328" y="102" width="11" height="11" rx="2" fill="#EDF0EE"><title>2026-01-14: 0 commits</title></rect><rect x="328" y="116" width="11" height="11" rx="2" fill="#EDF0EE"><title>2026-01-15: 0 commits</title></rect><rect x="328" y="130" width="11" height="11" rx="2" fill="#EDF0EE"><title>2026-01-16: 0 commits</title></rect><rect x="328" y="144" width="11" height="11" rx="2" fill="#EDF0EE"><title>2026-01-17: 0 commits</title></rect><rect x="342" y="60" width="11" height="11" rx="2" fill="#EDF0EE"><title>2026-01-18: 0 commits</title></rect><rect x="342" y="74" width="11" height="11" rx="2" fill="#EDF0EE"><title>2026-01-19: 0 commits</title></rect><rect x="342" y="88" width="11" height="11" rx="2" fill="#EDF0EE"><title>2026-01-20: 0 commits</title></rect><rect x="342" y="102" width="11" height="11" rx="2" fill="#EDF0EE"><title>2026-01-21: 0 commits</title></rect><rect x="342" y="116" width="11" height="11" rx="2" fill="#EDF0EE"><title>2026-01-22: 0 commits</title></rect><rect x="342" y="130" width="11" height="11" rx="2" fill="#EDF0EE"><title>2026-01-23: 0 commits</title></rect><rect x="342" y="144" width="11" height="11" rx="2" fill="#EDF0EE"><title>2026-01-24: 0 commits</title></rect><rect x="356" y="60" width="11" height="11" rx="2" fill="#EDF0EE"><title>2026-01-25: 0 commits</title></rect><rect x="356" y="74" width="11" height="11" rx="2" fill="#2AA862"><title>2026-01-26: 8 commits</title></rect><rect x="356" y="88" width="11" height="11" rx="2" fill="#EDF0EE"><title>2026-01-27: 0 commits</title></rect><rect x="356" y="102" width="11" height="11" rx="2" fill="#EDF0EE"><title>2026-01-28: 0 commits</title></rect><rect x="356" y="116" width="11" height="11" rx="2" fill="#EDF0EE"><title>2026-01-29: 0 commits</title></rect><rect x="356" y="130" width="11" height="11" rx="2" fill="#EDF0EE"><title>2026-01-30: 0 commits</title></rect><rect x="356" y="144" width="11" height="11" rx="2" fill="#5FD096"><title>2026-01-31: 5 commits</title></rect><rect x="370" y="60" width="11" height="11" rx="2" fill="#EDF0EE"><title>2026-02-01: 0 commits</title></rect><rect x="370" y="74" width="11" height="11" rx="2" fill="#5FD096"><title>2026-02-02: 5 commits</title></rect><rect x="370" y="88" width="11" height="11" rx="2" fill="#EDF0EE"><title>2026-02-03: 0 commits</title></rect><rect x="370" y="102" width="11" height="11" rx="2" fill="#177F4C"><title>2026-02-04: 25 commits</title></rect><rect x="370" y="116" width="11" height="11" rx="2" fill="#EDF0EE"><title>2026-02-05: 0 commits</title></rect><rect x="370" y="130" width="11" height="11" rx="2" fill="#EDF0EE"><title>2026-02-06: 0 commits</title></rect><rect x="370" y="144" width="11" height="11" rx="2" fill="#2AA862"><title>2026-02-07: 7 commits</title></rect><rect x="384" y="60" width="11" height="11" rx="2" fill="#177F4C"><title>2026-02-08: 33 commits</title></rect><rect x="384" y="74" width="11" height="11" rx="2" fill="#5FD096"><title>2026-02-09: 5 commits</title></rect><rect x="384" y="88" width="11" height="11" rx="2" fill="#A9E9C4"><title>2026-02-10: 1 commit</title></rect><rect x="384" y="102" width="11" height="11" rx="2" fill="#EDF0EE"><title>2026-02-11: 0 commits</title></rect><rect x="384" y="116" width="11" height="11" rx="2" fill="#A9E9C4"><title>2026-02-12: 2 commits</title></rect><rect x="384" y="130" width="11" height="11" rx="2" fill="#EDF0EE"><title>2026-02-13: 0 commits</title></rect><rect x="384" y="144" width="11" height="11" rx="2" fill="#EDF0EE"><title>2026-02-14: 0 commits</title></rect><rect x="398" y="60" width="11" height="11" rx="2" fill="#EDF0EE"><title>2026-02-15: 0 commits</title></rect><rect x="398" y="74" width="11" height="11" rx="2" fill="#EDF0EE"><title>2026-02-16: 0 commits</title></rect><rect x="398" y="88" width="11" height="11" rx="2" fill="#EDF0EE"><title>2026-02-17: 0 commits</title></rect><rect x="398" y="102" width="11" height="11" rx="2" fill="#EDF0EE"><title>2026-02-18: 0 commits</title></rect><rect x="398" y="116" width="11" height="11" rx="2" fill="#EDF0EE"><title>2026-02-19: 0 commits</title></rect><rect x="398" y="130" width="11" height="11" rx="2" fill="#EDF0EE"><title>2026-02-20: 0 commits</title></rect><rect x="398" y="144" width="11" height="11" rx="2" fill="#EDF0EE"><title>2026-02-21: 0 commits</title></rect><rect x="412" y="60" width="11" height="11" rx="2" fill="#EDF0EE"><title>2026-02-22: 0 commits</title></rect><rect x="412" y="74" width="11" height="11" rx="2" fill="#EDF0EE"><title>2026-02-23: 0 commits</title></rect><rect x="412" y="88" width="11" height="11" rx="2" fill="#EDF0EE"><title>2026-02-24: 0 commits</title></rect><rect x="412" y="102" width="11" height="11" rx="2" fill="#EDF0EE"><title>2026-02-25: 0 commits</title></rect><rect x="412" y="116" width="11" height="11" rx="2" fill="#EDF0EE"><title>2026-02-26: 0 commits</title></rect><rect x="412" y="130" width="11" height="11" rx="2" fill="#EDF0EE"><title>2026-02-27: 0 commits</title></rect><rect x="412" y="144" width="11" height="11" rx="2" fill="#EDF0EE"><title>2026-02-28: 0 commits</title></rect><rect x="426" y="60" width="11" height="11" rx="2" fill="#EDF0EE"><title>2026-03-01: 0 commits</title></rect><rect x="426" y="74" width="11" height="11" rx="2" fill="#EDF0EE"><title>2026-03-02: 0 commits</title></rect><rect x="426" y="88" width="11" height="11" rx="2" fill="#EDF0EE"><title>2026-03-03: 0 commits</title></rect><rect x="426" y="102" width="11" height="11" rx="2" fill="#EDF0EE"><title>2026-03-04: 0 commits</title></rect><rect x="426" y="116" width="11" height="11" rx="2" fill="#EDF0EE"><title>2026-03-05: 0 commits</title></rect><rect x="426" y="130" width="11" height="11" rx="2" fill="#EDF0EE"><title>2026-03-06: 0 commits</title></rect><rect x="426" y="144" width="11" height="11" rx="2" fill="#EDF0EE"><title>2026-03-07: 0 commits</title></rect><rect x="440" y="60" width="11" height="11" rx="2" fill="#EDF0EE"><title>2026-03-08: 0 commits</title></rect><rect x="440" y="74" width="11" height="11" rx="2" fill="#EDF0EE"><title>2026-03-09: 0 commits</title></rect><rect x="440" y="88" width="11" height="11" rx="2" fill="#EDF0EE"><title>2026-03-10: 0 commits</title></rect><rect x="440" y="102" width="11" height="11" rx="2" fill="#EDF0EE"><title>2026-03-11: 0 commits</title></rect><rect x="440" y="116" width="11" height="11" rx="2" fill="#EDF0EE"><title>2026-03-12: 0 commits</title></rect><rect x="440" y="130" width="11" height="11" rx="2" fill="#EDF0EE"><title>2026-03-13: 0 commits</title></rect><rect x="440" y="144" width="11" height="11" rx="2" fill="#EDF0EE"><title>2026-03-14: 0 commits</title></rect><rect x="454" y="60" width="11" height="11" rx="2" fill="#EDF0EE"><title>2026-03-15: 0 commits</title></rect><rect x="454" y="74" width="11" height="11" rx="2" fill="#EDF0EE"><title>2026-03-16: 0 commits</title></rect><rect x="454" y="88" width="11" height="11" rx="2" fill="#EDF0EE"><title>2026-03-17: 0 commits</title></rect><rect x="454" y="102" width="11" height="11" rx="2" fill="#EDF0EE"><title>2026-03-18: 0 commits</title></rect><rect x="454" y="116" width="11" height="11" rx="2" fill="#EDF0EE"><title>2026-03-19: 0 commits</title></rect><rect x="454" y="130" width="11" height="11" rx="2" fill="#EDF0EE"><title>2026-03-20: 0 commits</title></rect><rect x="454" y="144" width="11" height="11" rx="2" fill="#EDF0EE"><title>2026-03-21: 0 commits</title></rect><rect x="468" y="60" width="11" height="11" rx="2" fill="#EDF0EE"><title>2026-03-22: 0 commits</title></rect><rect x="468" y="74" width="11" height="11" rx="2" fill="#EDF0EE"><title>2026-03-23: 0 commits</title></rect><rect x="468" y="88" width="11" height="11" rx="2" fill="#EDF0EE"><title>2026-03-24: 0 commits</title></rect><rect x="468" y="102" width="11" height="11" rx="2" fill="#EDF0EE"><title>2026-03-25: 0 commits</title></rect><rect x="468" y="116" width="11" height="11" rx="2" fill="#EDF0EE"><title>2026-03-26: 0 commits</title></rect><rect x="468" y="130" width="11" height="11" rx="2" fill="#EDF0EE"><title>2026-03-27: 0 commits</title></rect><rect x="468" y="144" width="11" height="11" rx="2" fill="#EDF0EE"><title>2026-03-28: 0 commits</title></rect><rect x="482" y="60" width="11" height="11" rx="2" fill="#EDF0EE"><title>2026-03-29: 0 commits</title></rect><rect x="482" y="74" width="11" height="11" rx="2" fill="#EDF0EE"><title>2026-03-30: 0 commits</title></rect><rect x="482" y="88" width="11" height="11" rx="2" fill="#EDF0EE"><title>2026-03-31: 0 commits</title></rect><rect x="482" y="102" width="11" height="11" rx="2" fill="#A9E9C4"><title>2026-04-01: 2 commits</title></rect><rect x="482" y="116" width="11" height="11" rx="2" fill="#2AA862"><title>2026-04-02: 8 commits</title></rect><rect x="482" y="130" width="11" height="11" rx="2" fill="#EDF0EE"><title>2026-04-03: 0 commits</title></rect><rect x="482" y="144" width="11" height="11" rx="2" fill="#EDF0EE"><title>2026-04-04: 0 commits</title></rect><rect x="496" y="60" width="11" height="11" rx="2" fill="#EDF0EE"><title>2026-04-05: 0 commits</title></rect><rect x="496" y="74" width="11" height="11" rx="2" fill="#EDF0EE"><title>2026-04-06: 0 commits</title></rect><rect x="496" y="88" width="11" height="11" rx="2" fill="#EDF0EE"><title>2026-04-07: 0 commits</title></rect><rect x="496" y="102" width="11" height="11" rx="2" fill="#EDF0EE"><title>2026-04-08: 0 commits</title></rect><rect x="496" y="116" width="11" height="11" rx="2" fill="#EDF0EE"><title>2026-04-09: 0 commits</title></rect><rect x="496" y="130" width="11" height="11" rx="2" fill="#5FD096"><title>2026-04-10: 4 commits</title></rect><rect x="496" y="144" width="11" height="11" rx="2" fill="#EDF0EE"><title>2026-04-11: 0 commits</title></rect><rect x="510" y="60" width="11" height="11" rx="2" fill="#EDF0EE"><title>2026-04-12: 0 commits</title></rect><rect x="510" y="74" width="11" height="11" rx="2" fill="#EDF0EE"><title>2026-04-13: 0 commits</title></rect><rect x="510" y="88" width="11" height="11" rx="2" fill="#EDF0EE"><title>2026-04-14: 0 commits</title></rect><rect x="510" y="102" width="11" height="11" rx="2" fill="#EDF0EE"><title>2026-04-15: 0 commits</title></rect><rect x="510" y="116" width="11" height="11" rx="2" fill="#EDF0EE"><title>2026-04-16: 0 commits</title></rect><rect x="510" y="130" width="11" height="11" rx="2" fill="#EDF0EE"><title>2026-04-17: 0 commits</title></rect><rect x="510" y="144" width="11" height="11" rx="2" fill="#EDF0EE"><title>2026-04-18: 0 commits</title></rect><rect x="524" y="60" width="11" height="11" rx="2" fill="#EDF0EE"><title>2026-04-19: 0 commits</title></rect><rect x="524" y="74" width="11" height="11" rx="2" fill="#EDF0EE"><title>2026-04-20: 0 commits</title></rect><rect x="524" y="88" width="11" height="11" rx="2" fill="#EDF0EE"><title>2026-04-21: 0 commits</title></rect><rect x="524" y="102" width="11" height="11" rx="2" fill="#EDF0EE"><title>2026-04-22: 0 commits</title></rect><rect x="524" y="116" width="11" height="11" rx="2" fill="#EDF0EE"><title>2026-04-23: 0 commits</title></rect><rect x="524" y="130" width="11" height="11" rx="2" fill="#EDF0EE"><title>2026-04-24: 0 commits</title></rect><rect x="524" y="144" width="11" height="11" rx="2" fill="#EDF0EE"><title>2026-04-25: 0 commits</title></rect><rect x="538" y="60" width="11" height="11" rx="2" fill="#EDF0EE"><title>2026-04-26: 0 commits</title></rect><rect x="538" y="74" width="11" height="11" rx="2" fill="#EDF0EE"><title>2026-04-27: 0 commits</title></rect><rect x="538" y="88" width="11" height="11" rx="2" fill="#EDF0EE"><title>2026-04-28: 0 commits</title></rect><rect x="538" y="102" width="11" height="11" rx="2" fill="#EDF0EE"><title>2026-04-29: 0 commits</title></rect><rect x="538" y="116" width="11" height="11" rx="2" fill="#EDF0EE"><title>2026-04-30: 0 commits</title></rect><rect x="538" y="130" width="11" height="11" rx="2" fill="#EDF0EE"><title>2026-05-01: 0 commits</title></rect><rect x="538" y="144" width="11" height="11" rx="2" fill="#EDF0EE"><title>2026-05-02: 0 commits</title></rect><rect x="552" y="60" width="11" height="11" rx="2" fill="#EDF0EE"><title>2026-05-03: 0 commits</title></rect><rect x="552" y="74" width="11" height="11" rx="2" fill="#EDF0EE"><title>2026-05-04: 0 commits</title></rect><rect x="552" y="88" width="11" height="11" rx="2" fill="#EDF0EE"><title>2026-05-05: 0 commits</title></rect><rect x="552" y="102" width="11" height="11" rx="2" fill="#EDF0EE"><title>2026-05-06: 0 commits</title></rect><rect x="552" y="116" width="11" height="11" rx="2" fill="#EDF0EE"><title>2026-05-07: 0 commits</title></rect><rect x="552" y="130" width="11" height="11" rx="2" fill="#EDF0EE"><title>2026-05-08: 0 commits</title></rect><rect x="552" y="144" width="11" height="11" rx="2" fill="#EDF0EE"><title>2026-05-09: 0 commits</title></rect><rect x="566" y="60" width="11" height="11" rx="2" fill="#EDF0EE"><title>2026-05-10: 0 commits</title></rect><rect x="566" y="74" width="11" height="11" rx="2" fill="#EDF0EE"><title>2026-05-11: 0 commits</title></rect><rect x="566" y="88" width="11" height="11" rx="2" fill="#EDF0EE"><title>2026-05-12: 0 commits</title></rect><rect x="566" y="102" width="11" height="11" rx="2" fill="#EDF0EE"><title>2026-05-13: 0 commits</title></rect><rect x="566" y="116" width="11" height="11" rx="2" fill="#EDF0EE"><title>2026-05-14: 0 commits</title></rect><rect x="566" y="130" width="11" height="11" rx="2" fill="#EDF0EE"><title>2026-05-15: 0 commits</title></rect><rect x="566" y="144" width="11" height="11" rx="2" fill="#EDF0EE"><title>2026-05-16: 0 commits</title></rect><rect x="580" y="60" width="11" height="11" rx="2" fill="#EDF0EE"><title>2026-05-17: 0 commits</title></rect><rect x="580" y="74" width="11" height="11" rx="2" fill="#EDF0EE"><title>2026-05-18: 0 commits</title></rect><rect x="580" y="88" width="11" height="11" rx="2" fill="#EDF0EE"><title>2026-05-19: 0 commits</title></rect><rect x="580" y="102" width="11" height="11" rx="2" fill="#EDF0EE"><title>2026-05-20: 0 commits</title></rect><rect x="580" y="116" width="11" height="11" rx="2" fill="#EDF0EE"><title>2026-05-21: 0 commits</title></rect><rect x="580" y="130" width="11" height="11" rx="2" fill="#EDF0EE"><title>2026-05-22: 0 commits</title></rect><rect x="580" y="144" width="11" height="11" rx="2" fill="#EDF0EE"><title>2026-05-23: 0 commits</title></rect><rect x="594" y="60" width="11" height="11" rx="2" fill="#A9E9C4"><title>2026-05-24: 2 commits</title></rect><rect x="594" y="74" width="11" height="11" rx="2" fill="#EDF0EE"><title>2026-05-25: 0 commits</title></rect><rect x="594" y="88" width="11" height="11" rx="2" fill="#EDF0EE"><title>2026-05-26: 0 commits</title></rect><rect x="594" y="102" width="11" height="11" rx="2" fill="#EDF0EE"><title>2026-05-27: 0 commits</title></rect><rect x="594" y="116" width="11" height="11" rx="2" fill="#EDF0EE"><title>2026-05-28: 0 commits</title></rect><rect x="594" y="130" width="11" height="11" rx="2" fill="#EDF0EE"><title>2026-05-29: 0 commits</title></rect><rect x="594" y="144" width="11" height="11" rx="2" fill="#EDF0EE"><title>2026-05-30: 0 commits</title></rect><rect x="608" y="60" width="11" height="11" rx="2" fill="#5FD096"><title>2026-05-31: 3 commits</title></rect><rect x="608" y="74" width="11" height="11" rx="2" fill="#5FD096"><title>2026-06-01: 3 commits</title></rect><rect x="608" y="88" width="11" height="11" rx="2" fill="#5FD096"><title>2026-06-02: 5 commits</title></rect><rect x="608" y="102" width="11" height="11" rx="2" fill="#EDF0EE"><title>2026-06-03: 0 commits</title></rect><rect x="608" y="116" width="11" height="11" rx="2" fill="#EDF0EE"><title>2026-06-04: 0 commits</title></rect><rect x="608" y="130" width="11" height="11" rx="2" fill="#EDF0EE"><title>2026-06-05: 0 commits</title></rect><rect x="608" y="144" width="11" height="11" rx="2" fill="#5FD096"><title>2026-06-06: 3 commits</title></rect><rect x="622" y="60" width="11" height="11" rx="2" fill="#177F4C"><title>2026-06-07: 70 commits</title></rect><rect x="622" y="74" width="11" height="11" rx="2" fill="#177F4C"><title>2026-06-08: 61 commits</title></rect><rect x="622" y="88" width="11" height="11" rx="2" fill="#177F4C"><title>2026-06-09: 32 commits</title></rect><rect x="622" y="102" width="11" height="11" rx="2" fill="#177F4C"><title>2026-06-10: 47 commits</title></rect><rect x="622" y="116" width="11" height="11" rx="2" fill="#177F4C"><title>2026-06-11: 114 commits</title></rect><rect x="622" y="130" width="11" height="11" rx="2" fill="#177F4C"><title>2026-06-12: 84 commits</title></rect><rect x="622" y="144" width="11" height="11" rx="2" fill="#2AA862"><title>2026-06-13: 9 commits</title></rect><rect x="636" y="60" width="11" height="11" rx="2" fill="#2AA862"><title>2026-06-14: 6 commits</title></rect><rect x="636" y="74" width="11" height="11" rx="2" fill="#A9E9C4"><title>2026-06-15: 1 commit</title></rect><rect x="636" y="88" width="11" height="11" rx="2" fill="#2AA862"><title>2026-06-16: 6 commits</title></rect><rect x="636" y="102" width="11" height="11" rx="2" fill="#EDF0EE"><title>2026-06-17: 0 commits</title></rect><rect x="636" y="116" width="11" height="11" rx="2" fill="#EDF0EE"><title>2026-06-18: 0 commits</title></rect><rect x="636" y="130" width="11" height="11" rx="2" fill="#EDF0EE"><title>2026-06-19: 0 commits</title></rect><rect x="636" y="144" width="11" height="11" rx="2" fill="#A9E9C4"><title>2026-06-20: 1 commit</title></rect><rect x="650" y="60" width="11" height="11" rx="2" fill="#177F4C"><title>2026-06-21: 14 commits</title></rect><rect x="650" y="74" width="11" height="11" rx="2" fill="#5FD096"><title>2026-06-22: 5 commits</title></rect><rect x="650" y="88" width="11" height="11" rx="2" fill="#A9E9C4"><title>2026-06-23: 1 commit</title></rect><rect x="650" y="102" width="11" height="11" rx="2" fill="#EDF0EE"><title>2026-06-24: 0 commits</title></rect><rect x="650" y="116" width="11" height="11" rx="2" fill="#2AA862"><title>2026-06-25: 9 commits</title></rect><rect x="650" y="130" width="11" height="11" rx="2" fill="#A9E9C4"><title>2026-06-26: 2 commits</title></rect><rect x="650" y="144" width="11" height="11" rx="2" fill="#5FD096"><title>2026-06-27: 4 commits</title></rect><rect x="664" y="60" width="11" height="11" rx="2" fill="#177F4C"><title>2026-06-28: 45 commits</title></rect><rect x="664" y="74" width="11" height="11" rx="2" fill="#177F4C"><title>2026-06-29: 14 commits</title></rect><rect x="664" y="88" width="11" height="11" rx="2" fill="#177F4C"><title>2026-06-30: 22 commits</title></rect><rect x="664" y="102" width="11" height="11" rx="2" fill="#2AA862"><title>2026-07-01: 6 commits</title></rect><rect x="664" y="116" width="11" height="11" rx="2" fill="#177F4C"><title>2026-07-02: 35 commits</title></rect><rect x="664" y="130" width="11" height="11" rx="2" fill="#EDF0EE"><title>2026-07-03: 0 commits</title></rect><rect x="664" y="144" width="11" height="11" rx="2" fill="#2AA862"><title>2026-07-04: 10 commits</title></rect><rect x="678" y="60" width="11" height="11" rx="2" fill="#2AA862"><title>2026-07-05: 7 commits</title></rect><rect x="678" y="74" width="11" height="11" rx="2" fill="#177F4C"><title>2026-07-06: 31 commits</title></rect><rect x="678" y="88" width="11" height="11" rx="2" fill="#177F4C"><title>2026-07-07: 23 commits</title></rect><rect x="678" y="102" width="11" height="11" rx="2" fill="#177F4C"><title>2026-07-08: 26 commits</title></rect><rect x="678" y="116" width="11" height="11" rx="2" fill="#2AA862"><title>2026-07-09: 8 commits</title></rect><rect x="678" y="130" width="11" height="11" rx="2" fill="#A9E9C4"><title>2026-07-10: 2 commits</title></rect><rect x="678" y="144" width="11" height="11" rx="2" fill="#2AA862"><title>2026-07-11: 7 commits</title></rect><rect x="692" y="60" width="11" height="11" rx="2" fill="#A9E9C4"><title>2026-07-12: 2 commits</title></rect><rect x="692" y="74" width="11" height="11" rx="2" fill="#2AA862"><title>2026-07-13: 10 commits</title></rect><rect x="692" y="88" width="11" height="11" rx="2" fill="#2AA862"><title>2026-07-14: 8 commits</title></rect><rect x="692" y="102" width="11" height="11" rx="2" fill="#177F4C"><title>2026-07-15: 14 commits</title></rect><rect x="692" y="116" width="11" height="11" rx="2" fill="#177F4C"><title>2026-07-16: 23 commits</title></rect><rect x="692" y="130" width="11" height="11" rx="2" fill="#177F4C"><title>2026-07-17: 44 commits</title></rect><rect x="692" y="144" width="11" height="11" rx="2" fill="#177F4C"><title>2026-07-18: 32 commits</title></rect><rect x="706" y="60" width="11" height="11" rx="2" fill="#177F4C"><title>2026-07-19: 19 commits</title></rect><rect x="706" y="74" width="11" height="11" rx="2" fill="#5FD096"><title>2026-07-20: 4 commits</title></rect><rect x="706" y="88" width="11" height="11" rx="2" fill="#5FD096"><title>2026-07-21: 3 commits</title></rect><rect x="706" y="102" width="11" height="11" rx="2" fill="#A9E9C4"><title>2026-07-22: 1 commit</title></rect><rect x="706" y="116" width="11" height="11" rx="2" fill="#2AA862"><title>2026-07-23: 6 commits</title></rect><rect x="706" y="130" width="11" height="11" rx="2" fill="#177F4C"><title>2026-07-24: 21 commits</title></rect><rect x="706" y="144" width="11" height="11" rx="2" fill="#177F4C"><title>2026-07-25: 14 commits</title></rect><rect x="720" y="60" width="11" height="11" rx="2" fill="#177F4C"><title>2026-07-26: 41 commits</title></rect><rect x="720" y="74" width="11" height="11" rx="2" fill="#177F4C"><title>2026-07-27: 46 commits</title></rect><rect x="720" y="88" width="11" height="11" rx="2" fill="#177F4C"><title>2026-07-28: 83 commits</title></rect><rect x="720" y="102" width="11" height="11" rx="2" fill="#177F4C"><title>2026-07-29: 20 commits</title></rect><rect x="720" y="116" width="11" height="11" rx="2" fill="#177F4C"><title>2026-07-30: 13 commits</title></rect><rect x="720" y="130" width="11" height="11" rx="2" fill="#177F4C"><title>2026-07-31: 59 commits</title></rect><rect x="720" y="144" width="11" height="11" rx="2" fill="#177F4C"><title>2026-08-01: 47 commits</title></rect><rect x="734" y="60" width="11" height="11" rx="2" fill="#177F4C"><title>2026-08-02: 64 commits</title></rect><rect x="734" y="74" width="11" height="11" rx="2" fill="#177F4C"><title>2026-08-03: 24 commits</title></rect><rect x="734" y="88" width="11" height="11" rx="2" fill="#177F4C"><title>2026-08-04: 23 commits</title></rect><rect x="734" y="102" width="11" height="11" rx="2" fill="#177F4C"><title>2026-08-05: 18 commits</title></rect><rect x="734" y="116" width="11" height="11" rx="2" fill="#2AA862"><title>2026-08-06: 7 commits</title></rect><rect x="734" y="130" width="11" height="11" rx="2" fill="#2AA862"><title>2026-08-07: 9 commits</title></rect><rect x="734" y="144" width="11" height="11" rx="2" fill="#5FD096"><title>2026-08-08: 4 commits</title></rect><rect x="748" y="60" width="11" height="11" rx="2" fill="#EDF0EE"><title>2026-08-09: 0 commits</title></rect><rect x="748" y="74" width="11" height="11" rx="2" fill="#EDF0EE"><title>2026-08-10: 0 commits</title></rect><rect x="748" y="88" width="11" height="11" rx="2" fill="#5FD096"><title>2026-08-11: 5 commits</title></rect><rect x="748" y="102" width="11" height="11" rx="2" fill="#177F4C"><title>2026-08-12: 17 commits</title></rect><rect x="748" y="116" width="11" height="11" rx="2" fill="#177F4C"><title>2026-08-13: 123 commits</title></rect><rect x="748" y="130" width="11" height="11" rx="2" fill="#177F4C"><title>2026-08-14: 96 commits</title></rect><rect x="748" y="144" width="11" height="11" rx="2" fill="#177F4C"><title>2026-08-15: 48 commits</title></rect><rect x="762" y="60" width="11" height="11" rx="2" fill="#177F4C"><title>2026-08-16: 44 commits</title></rect><rect x="762" y="74" width="11" height="11" rx="2" fill="#2AA862"><title>2026-08-17: 6 commits</title></rect><rect x="762" y="88" width="11" height="11" rx="2" fill="#5FD096"><title>2026-08-18: 3 commits</title></rect><rect x="762" y="102" width="11" height="11" rx="2" fill="#A9E9C4"><title>2026-08-19: 1 commit</title></rect><rect x="762" y="116" width="11" height="11" rx="2" fill="#5FD096"><title>2026-08-20: 3 commits</title></rect>
<text x="34" y="177" fill="#1A1D1B" font-size="11" font-weight="700">2,145 commits</text>
<text x="34" y="193" fill="#6B7570" font-size="10">53 repositories &#183; 110 active days &#183; longest streak 36 days</text>
<text x="630" y="177" fill="#6B7570" font-size="10">Less</text><rect x="660" y="168" width="11" height="11" rx="2" fill="#EDF0EE"/><rect x="674" y="168" width="11" height="11" rx="2" fill="#A9E9C4"/><rect x="688" y="168" width="11" height="11" rx="2" fill="#5FD096"/><rect x="702" y="168" width="11" height="11" rx="2" fill="#2AA862"/><rect x="716" y="168" width="11" height="11" rx="2" fill="#177F4C"/><text x="735" y="177" fill="#6B7570" font-size="10">More</text>
</svg>